<svg xmlns="http://www.w3.org/2000/svg" width="313.65" height="32.61" viewBox="0 0 313.65 32.61"><path d="M228.39,6a2.78,2.78,0,0,1-2.88,3h-1.18v4.08h-1.4v-10h2.65A2.67,2.67,0,0,1,228.39,6Zm-1.44,0a1.4,1.4,0,0,0-1.47-1.59h-1.15V7.69h1.19C226.34,7.69,227,7.16,227,6.07Z" fill="#231f20"/><path d="M233.31,5.71,233,7.08a1.82,1.82,0,0,0-1-.22,1.19,1.19,0,0,0-1.07.58v5.68h-1.38V5.61H231v.52a1.68,1.68,0,0,1,1.33-.68A1.87,1.87,0,0,1,233.31,5.71Z" fill="#231f20"/><path d="M239.37,9.34c0,2.64-1.09,3.94-2.75,3.94S234,12,234,9.4s1-3.95,2.72-3.95S239.37,6.73,239.37,9.34Zm-1.39,0c0-1.7-.47-2.6-1.33-2.6s-1.3.89-1.3,2.6.46,2.59,1.31,2.59S238,10.93,238,9.37Z" fill="#231f20"/><path d="M245.53,12.46c0,2.15-.78,3.18-3.06,3.42l-.38-1.1c1.65-.22,2.07-.7,2.07-2.12V12.6a1.72,1.72,0,0,1-1.4.68c-1.36,0-2.26-1-2.26-4,0-2.51.87-3.84,2.36-3.84a1.7,1.7,0,0,1,1.3.56v-.4h1.37Zm-1.37-1.16V7.41A1.44,1.44,0,0,0,243,6.74c-.71,0-1.08.7-1.08,2.48,0,1.95.37,2.77,1.15,2.77A1.35,1.35,0,0,0,244.16,11.3Z" fill="#231f20"/><path d="M250.88,5.71l-.32,1.37a1.82,1.82,0,0,0-1-.22,1.19,1.19,0,0,0-1.07.58v5.68h-1.38V5.61h1.38v.52a1.68,1.68,0,0,1,1.32-.68A1.88,1.88,0,0,1,250.88,5.71Z" fill="#231f20"/><path d="M256.44,13.12h-1.38V12.6a1.88,1.88,0,0,1-1.54.68c-1.1,0-2-.83-2-2.52a2.25,2.25,0,0,1,2.44-2.46,2.68,2.68,0,0,1,1.14.24V7.81c0-.73-.24-1.07-1-1.07a2.74,2.74,0,0,0-1.47.47l-.59-1a4.06,4.06,0,0,1,2.16-.72c1.62,0,2.25.58,2.25,2.25Zm-1.38-1.79V9.83a1.89,1.89,0,0,0-1.13-.29c-.64,0-1.08.38-1.08,1.19s.36,1.3.94,1.3A1.38,1.38,0,0,0,255.06,11.33Z" fill="#231f20"/><path d="M266,13.12H264.6V8.5c0-1.24-.1-1.74-.79-1.74a1.34,1.34,0,0,0-1.12.68v5.68h-1.37V8.5c0-1.24-.1-1.74-.78-1.74a1.33,1.33,0,0,0-1.12.68v5.68h-1.37V5.61h1.37v.52a1.7,1.7,0,0,1,1.4-.68,1.57,1.57,0,0,1,1.52.81,2.14,2.14,0,0,1,1.76-.81c1.5,0,1.87,1,1.87,3Z" fill="#231f20"/><path d="M275.29,13.12h-1.37V12.6a1.9,1.9,0,0,1-1.54.68c-1.11,0-2.05-.83-2.05-2.52a2.26,2.26,0,0,1,2.45-2.46,2.71,2.71,0,0,1,1.14.24V7.81c0-.73-.24-1.07-1-1.07a2.79,2.79,0,0,0-1.48.47l-.58-1a4,4,0,0,1,2.16-.72c1.61,0,2.24.58,2.24,2.25Zm-1.37-1.79V9.83a1.91,1.91,0,0,0-1.13-.29,1,1,0,0,0-1.09,1.19c0,.89.36,1.3.95,1.3A1.4,1.4,0,0,0,273.92,11.33Z" fill="#231f20"/><path d="M281.69,13.12h-1.37V8.5c0-1.24-.24-1.74-.93-1.74a1.31,1.31,0,0,0-1.11.68v5.68H276.9V5.61h1.38v.52a1.81,1.81,0,0,1,1.45-.68c1.45,0,2,.93,2,2.82Z" fill="#231f20"/><path d="M288.08,13.12H286.7v-.5a1.75,1.75,0,0,1-1.4.66c-1.36,0-2.26-1-2.26-4,0-2.51.88-3.84,2.36-3.84a1.7,1.7,0,0,1,1.3.56V3.41l1.38-.71ZM286.7,11.3V7.41a1.43,1.43,0,0,0-1.18-.67c-.72,0-1.09.7-1.09,2.48,0,1.95.37,2.77,1.16,2.77A1.33,1.33,0,0,0,286.7,11.3Z" fill="#231f20"/><path d="M228.18,26.62c-.31,1.5-1,2.53-2.66,2.53-2.16,0-2.94-2.3-2.94-5.15s.87-5.17,3-5.17c1.68,0,2.36,1,2.61,2.44l-1.42.36c-.19-.9-.46-1.39-1.23-1.39-1.21,0-1.5,2-1.5,3.74s.39,3.75,1.6,3.75c.67,0,1-.45,1.26-1.52Z" fill="#231f20"/><path d="M234.72,25.22c0,2.63-1.08,3.93-2.74,3.93s-2.66-1.24-2.66-3.87,1-4,2.71-4S234.72,22.6,234.72,25.22Zm-1.38,0c0-1.7-.48-2.6-1.33-2.6s-1.31.88-1.31,2.6.46,2.59,1.32,2.59S233.34,26.81,233.34,25.25Z" fill="#231f20"/><path d="M240.84,29h-1.37v-.51a1.83,1.83,0,0,1-1.46.67c-1.44,0-2-.93-2-2.82V21.49h1.38v4.62c0,1.24.24,1.74.92,1.74a1.32,1.32,0,0,0,1.12-.69V21.49h1.37Z" fill="#231f20"/><path d="M246.2,21.59,245.87,23a1.71,1.71,0,0,0-1-.23,1.2,1.2,0,0,0-1.07.59V29h-1.38v-7.5h1.38V22a1.7,1.7,0,0,1,1.33-.67A1.85,1.85,0,0,1,246.2,21.59Z" fill="#231f20"/><path d="M251.43,26.94a2.07,2.07,0,0,1-2.33,2.21,4,4,0,0,1-2.31-.8l.53-1.14a3.43,3.43,0,0,0,1.75.64c.61,0,1-.33,1-.82s-.4-.8-1.44-1.4-1.56-1-1.56-2.21a2,2,0,0,1,2.15-2.09,3.4,3.4,0,0,1,2,.7l-.56,1.16a2.79,2.79,0,0,0-1.51-.56c-.52,0-.75.29-.75.66s.22.69,1.23,1.27S251.43,25.7,251.43,26.94Z" fill="#231f20"/><path d="M257.8,25.22c0,.13,0,.34,0,.48h-3.94c.09,1.49.62,2.14,1.42,2.14a1.7,1.7,0,0,0,1.36-.56l.84.87a3,3,0,0,1-2.23,1c-1.79,0-2.76-1.51-2.76-3.87,0-2.63,1.09-4,2.68-4S257.8,22.6,257.8,25.22Zm-1.4-.7c0-1.12-.5-1.9-1.27-1.9s-1.15.61-1.26,1.9Z" fill="#231f20"/><path d="M267.75,26.62c-.31,1.5-1,2.53-2.66,2.53-2.15,0-2.94-2.3-2.94-5.15s.87-5.17,3-5.17c1.67,0,2.36,1,2.6,2.44l-1.42.36c-.18-.9-.45-1.39-1.23-1.39-1.21,0-1.5,2-1.5,3.74s.39,3.75,1.6,3.75c.68,0,1-.45,1.26-1.52Z" fill="#231f20"/><path d="M273.84,29h-1.37v-.51a1.94,1.94,0,0,1-1.55.67c-1.1,0-2-.83-2-2.52a2.25,2.25,0,0,1,2.44-2.45,2.58,2.58,0,0,1,1.15.24v-.73c0-.73-.25-1.07-1-1.07a2.74,2.74,0,0,0-1.47.47L269.43,22a4.13,4.13,0,0,1,2.16-.71c1.62,0,2.25.57,2.25,2.24Zm-1.37-1.78V25.7a1.94,1.94,0,0,0-1.13-.28c-.65,0-1.09.37-1.09,1.19s.36,1.3.94,1.3A1.4,1.4,0,0,0,272.47,27.21Z" fill="#231f20"/><path d="M278.57,27.53l-.16,1.28a2.18,2.18,0,0,1-1.23.34c-1,0-1.44-.7-1.44-1.92V22.77h-.82V21.49h.82V19.3l1.37-.73v2.92h1.44v1.28h-1.44v4.34c0,.53.2.74.57.74A1.37,1.37,0,0,0,278.57,27.53Z" fill="#231f20"/><path d="M284.58,29h-1.37v-.51a1.94,1.94,0,0,1-1.55.67c-1.1,0-2-.83-2-2.52a2.25,2.25,0,0,1,2.44-2.45,2.58,2.58,0,0,1,1.15.24v-.73c0-.73-.25-1.07-1-1.07a2.74,2.74,0,0,0-1.47.47L280.18,22a4.07,4.07,0,0,1,2.15-.71c1.62,0,2.25.57,2.25,2.24Zm-1.37-1.78V25.7a1.94,1.94,0,0,0-1.13-.28c-.65,0-1.09.37-1.09,1.19s.36,1.3.94,1.3A1.4,1.4,0,0,0,283.21,27.21Z" fill="#231f20"/><path d="M287.6,29h-1.38v-9.7l1.38-.72Z" fill="#231f20"/><path d="M294.41,25.22c0,2.63-1.09,3.93-2.75,3.93S289,27.91,289,25.28s1-4,2.72-4S294.41,22.6,294.41,25.22Zm-1.39,0c0-1.7-.47-2.6-1.33-2.6s-1.3.88-1.3,2.6.46,2.59,1.31,2.59S293,26.81,293,25.25Z" fill="#231f20"/><path d="M300.57,28.34c0,2.14-.78,3.17-3.06,3.41l-.38-1.1c1.65-.21,2.07-.7,2.07-2.11v-.06a1.71,1.71,0,0,1-1.4.67c-1.36,0-2.26-1-2.26-4,0-2.5.87-3.83,2.36-3.83a1.66,1.66,0,0,1,1.3.56v-.4h1.37Zm-1.37-1.16V23.29a1.42,1.42,0,0,0-1.19-.67c-.71,0-1.08.7-1.08,2.47,0,2,.37,2.77,1.15,2.77A1.34,1.34,0,0,0,299.2,27.18Z" fill="#231f20"/><path d="M307,29h-1.37v-.51a1.83,1.83,0,0,1-1.46.67c-1.44,0-2-.93-2-2.82V21.49h1.38v4.62c0,1.24.24,1.74.93,1.74a1.3,1.3,0,0,0,1.11-.69V21.49H307Z" fill="#231f20"/><path d="M313.65,25.22a3.93,3.93,0,0,1,0,.48H309.7c.09,1.49.62,2.14,1.42,2.14a1.67,1.67,0,0,0,1.35-.56l.85.87a3,3,0,0,1-2.23,1c-1.79,0-2.76-1.51-2.76-3.87,0-2.63,1.08-4,2.67-4S313.65,22.6,313.65,25.22Zm-1.4-.7c-.05-1.12-.5-1.9-1.28-1.9s-1.14.61-1.25,1.9Z" fill="#231f20"/><path d="M61.13,29H53.89l-3.81-7.88H47.47V29H41.09V5.64H51.55c5.48,0,9.12,2.07,9.12,7.61a6.93,6.93,0,0,1-4.21,6.85Zm-6.91-15.6c0-1.47-.8-2.5-2.84-2.5H47.47V16h3.81C53.39,16,54.22,15.09,54.22,13.42Z" fill="#c81f45"/><path d="M84.38,29H77.14l-3.81-7.88H70.72V29H64.34V5.64H74.8c5.48,0,9.12,2.07,9.12,7.61a6.93,6.93,0,0,1-4.21,6.85Zm-6.91-15.6c0-1.47-.8-2.5-2.84-2.5H70.72V16h3.81C76.63,16,77.47,15.09,77.47,13.42Z" fill="#c81f45"/><path d="M107,23.34c-1.57,3.07-4.18,6.05-9.72,6.05-7,0-10.66-5.15-10.66-12.06C86.62,9.81,91,5.27,97.31,5.27c5.75,0,8,2.47,9.62,6.88l-5.88,2.31c-.83-2.17-1.63-3.54-3.77-3.54-2.71,0-3.88,2.7-3.88,6.41s1.14,6.41,3.95,6.41c2,0,2.9-1.1,4.17-3.3Z" fill="#c81f45"/><path d="M125.61,11.82c0,4.64-2.61,6.58-5.38,6.58h-1V29h-2.13V5.64h3.34C123.33,5.64,125.61,7.51,125.61,11.82Zm-2.18.13c0-2.8-1.16-4.24-3.1-4.24h-1.14v8.62h1.14C122.27,16.33,123.43,14.79,123.43,12Z" fill="#231f20"/><path d="M138,17.33c0,7.88-1.3,12.06-4.84,12.06s-4.84-4.18-4.84-12.06,1.3-12.06,4.84-12.06S138,9.45,138,17.33Zm-2.2,0c0-6.95-.94-10-2.68-10s-2.6,3-2.6,10,.94,10,2.67,10S135.83,24.28,135.83,17.33Z" fill="#231f20"/><path d="M149.09,29H142V5.64h2.14V27h4.94Z" fill="#231f20"/><path d="M159.31,5.64,155.37,18.9V29h-2.14V19L149.29,5.64h2.24l1.57,5.84c.53,2,1,3.85,1.23,5.21.24-1.36.7-3.27,1.24-5.21l1.57-5.84Z" fill="#231f20"/><path d="M170.2,7.64h-3.41V29h-2.13V7.64h-3.41v-2h8.95Z" fill="#231f20"/><path d="M181.26,29h-7.78V5.64h7.44V7.71h-5.31v7.78h3.71v2.07h-3.71V27h5.65Z" fill="#231f20"/><path d="M193.11,23.81c-.6,3.34-1.73,5.58-4.57,5.58-3.44,0-4.58-4.18-4.58-12.06s1.24-12.06,4.65-12.06c2.67,0,3.8,2.21,4.44,5.78l-2.11.57c-.66-3.41-1.3-4.28-2.37-4.28-1.67,0-2.4,3.21-2.4,10,0,7.05.77,10,2.54,10,1.23,0,1.8-1.17,2.37-4.11Z" fill="#231f20"/><path d="M206,29h-2.14V17.56h-5V29h-2.14V5.64h2.14v9.89h5V5.64H206Z" fill="#231f20"/><path d="M9.89,17.25a15.9,15.9,0,0,1,4.28-12.9L11.29,0A18.29,18.29,0,0,0,6.55,15.78c.69.43,3.34,1.47,3.34,1.47" fill="#c81f45"/><path d="M13.81,18.47c-.43-7.78,7-12.81,11.93-12.86L22.66,1.87c-6.2,1-12.28,7.47-11.3,15.88a16.2,16.2,0,0,0,2.45.72" fill="#c81f45"/><path d="M17.57,19.24c.27-6.06,6.37-10.15,14.28-6.41l.1-5c-8.71-2.89-17.08,2.85-16.62,11a10.61,10.61,0,0,0,2.24.39" fill="#c81f45"/><path d="M19.77,16a3.57,3.57,0,0,1,1.44-1.68C28,16.89,28,23.4,18,22.5a12.2,12.2,0,0,0,2.66,5l-.8,1.05a20,20,0,0,1-4.16-6.3c-.53-.08-.9-.12-1.48-.24a22.89,22.89,0,0,0,4.95,7.42s-.92,1.21-.9,1.2A25.87,25.87,0,0,1,12,21.44c-.53-.15-.92-.21-1.41-.36C11.68,24.51,14,28,17.45,31.56l-.77,1.05A27.35,27.35,0,0,1,7.57,19.87c-10.28-4.13-9.18-9.69-2.13-9.62a10.2,10.2,0,0,0-.06,2.14,5.75,5.75,0,0,0-3.3.43c-.17.11-.66-.24-.84-.91-.51,1.08.45,2,.85,2.42.89,1,1.85,1.84,10.42,4.7,6,1.53,9,1.55,11.09,1,1-.39,1.8-1.31,1.55-1.86,0-.06-.76.88-1.49.49-.34-.81-1.67-1.72-3.89-2.69" fill="#c81f45"/></svg>